<svg xmlns="http://www.w3.org/2000/svg" viewBox="0 0 512 512" width="100%" height="100%">
  <defs>
    <linearGradient id="shieldGrad" x1="0%" y1="0%" x2="100%" y2="100%">
      <stop offset="0%" stop-color="#E2CBFF" />
      <stop offset="50%" stop-color="#393BB2" />
      <stop offset="100%" stop-color="#E2CBFF" />
    </linearGradient>

    <linearGradient id="borderGrad" x1="100%" y1="0%" x2="0%" y2="100%">
      <stop offset="0%" stop-color="#ffffff" stop-opacity="0.8" />
      <stop offset="100%" stop-color="#ffffff" stop-opacity="0.1" />
    </linearGradient>

    <filter id="glow" x="-20%" y="-20%" width="140%" height="140%">
      <feGaussianBlur stdDeviation="24" result="blur" />
      <feComposite in="SourceGraphic" in2="blur" operator="over" />
    </filter>
  </defs>

  <path d="M256,48 C149.96,48,96,80,96,80 v144 c0,111.83,95.53,199.16,160,240 c64.47-40.84,160-128.17,160-240 V80 C416,80,362.04,48,256,48 z" 
        fill="url(#shieldGrad)" 
        filter="url(#glow)" 
        opacity="0.6"/>

  <path d="M256,48 C149.96,48,96,80,96,80 v144 c0,111.83,95.53,199.16,160,240 c64.47-40.84,160-128.17,160-240 V80 C416,80,362.04,48,256,48 z" 
        fill="url(#shieldGrad)" 
        stroke="url(#borderGrad)" 
        stroke-width="8" 
        stroke-linejoin="round" />

  <path d="M 196 220 V 166 C 196 133 223 106 256 106 C 289 106 316 133 316 166 V 220" 
        fill="none" 
        stroke="#ffffff" 
        stroke-width="32" 
        stroke-linecap="round" />

  <rect x="156" y="220" width="200" height="144" rx="32" fill="#ffffff" />

  <path d="M 212 324 V 260 L 300 324 V 260" 
        fill="none" 
        stroke="#393BB2" 
        stroke-width="28" 
        stroke-linecap="round" 
        stroke-linejoin="round" />
</svg>
